<svg width="17" height="12" viewBox="0 0 17 12" fill="none" xmlns="http://www.w3.org/2000/svg">
<path d="M16.0278 3.62266L8.55701 0.385304C8.4945 0.358215 8.4271 0.344238 8.35897 0.344238C8.29085 0.344238 8.22344 0.358215 8.16093 0.385304L0.690114 3.62266C0.290923 3.79564 0.29083 4.36364 0.690114 4.53662L3.37843 5.70154V8.81114C3.37843 10.4868 5.56613 11.7995 8.35897 11.7995C11.1518 11.7995 13.3395 10.4868 13.3395 8.81114V5.70154L13.8376 5.48573V10.8034C13.8376 11.0784 14.0606 11.3014 14.3356 11.3014C14.6107 11.3014 14.8337 11.0784 14.8337 10.8034V5.0541L16.0278 4.53665C16.427 4.36367 16.4271 3.79567 16.0278 3.62266ZM8.35897 1.38509L14.5772 4.07966L14.084 4.29335L8.42073 3.58543C8.14777 3.55153 7.89886 3.74493 7.86475 4.01787C7.83063 4.2908 8.02425 4.53973 8.29718 4.57385L12.286 5.07246L8.35897 6.77419L2.14079 4.07962L8.35897 1.38509ZM12.3434 8.81117C12.3434 9.28043 11.9583 9.76358 11.2867 10.1367C9.68728 11.0252 7.03533 11.0278 5.43125 10.1367C4.75969 9.76358 4.37454 9.28043 4.37454 8.81117V6.13323L8.16093 7.77401C8.22344 7.8011 8.29085 7.81507 8.35897 7.81507C8.4271 7.81507 8.4945 7.8011 8.55701 7.77401L12.3434 6.13323V8.81117Z" fill="#33BEF9"/>
</svg>
