<svg width="17" height="17" viewBox="0 0 17 17" fill="none" xmlns="http://www.w3.org/2000/svg">
<g id="Frame" clip-path="url(#clip0_188_2899)">
<g id="Group">
<path id="Vector" d="M16.0278 5.62266L8.55701 2.3853C8.4945 2.35822 8.4271 2.34424 8.35897 2.34424C8.29085 2.34424 8.22344 2.35822 8.16093 2.3853L0.690114 5.62266C0.290923 5.79564 0.29083 6.36364 0.690114 6.53662L3.37843 7.70154V10.8111C3.37843 12.4868 5.56613 13.7995 8.35897 13.7995C11.1518 13.7995 13.3395 12.4868 13.3395 10.8111V7.70154L13.8376 7.48573V12.8034C13.8376 13.0784 14.0606 13.3014 14.3356 13.3014C14.6107 13.3014 14.8337 13.0784 14.8337 12.8034V7.0541L16.0278 6.53665C16.427 6.36367 16.4271 5.79567 16.0278 5.62266ZM8.35897 3.38509L14.5772 6.07966L14.084 6.29335L8.42073 5.58543C8.14777 5.55153 7.89886 5.74493 7.86475 6.01787C7.83063 6.2908 8.02425 6.53973 8.29718 6.57385L12.286 7.07246L8.35897 8.77419L2.14079 6.07962L8.35897 3.38509ZM12.3434 10.8112C12.3434 11.2804 11.9583 11.7636 11.2867 12.1367C9.68728 13.0252 7.03533 13.0278 5.43125 12.1367C4.75969 11.7636 4.37454 11.2804 4.37454 10.8112V8.13323L8.16093 9.77401C8.22344 9.80109 8.29085 9.81507 8.35897 9.81507C8.4271 9.81507 8.4945 9.80109 8.55701 9.77401L12.3434 8.13323V10.8112Z" fill="#33BEF9"/>
</g>
</g>
<defs>
<clipPath id="clip0_188_2899">
<rect width="15.9366" height="15.9366" fill="white" transform="translate(0.390625 0.103516)"/>
</clipPath>
</defs>
</svg>
